<svg width="20" height="20" viewBox="0 0 20 20" fill="none" xmlns="http://www.w3.org/2000/svg">
<path d="M15.8312 9.16541H4.16608C3.24573 9.16541 2.49963 9.9115 2.49963 10.8318V16.6644C2.49963 17.5847 3.24573 18.3308 4.16608 18.3308H15.8312C16.7515 18.3308 17.4976 17.5847 17.4976 16.6644V10.8318C17.4976 9.9115 16.7515 9.16541 15.8312 9.16541Z" stroke="#737373" stroke-width="1.66644" stroke-linecap="round" stroke-linejoin="round"/>
<path d="M5.83252 9.16543V5.83255C5.83252 4.72763 6.27145 3.66796 7.05274 2.88667C7.83404 2.10537 8.8937 1.66644 9.99862 1.66644C11.1035 1.66644 12.1632 2.10537 12.9445 2.88667C13.7258 3.66796 14.1647 4.72763 14.1647 5.83255V9.16543" stroke="#737373" stroke-width="1.66644" stroke-linecap="round" stroke-linejoin="round"/>
</svg>
