<svg width="24" height="24" viewBox="0 0 24 24" fill="none" xmlns="http://www.w3.org/2000/svg">
<path d="M5.99923 1.99976L2.99963 5.99922V19.9974C2.99963 20.5277 3.21032 21.0364 3.58534 21.4114C3.96036 21.7864 4.469 21.9971 4.99937 21.9971H18.9975C19.5279 21.9971 20.0365 21.7864 20.4115 21.4114C20.7865 21.0364 20.9972 20.5277 20.9972 19.9974V5.99922L17.9976 1.99976H5.99923Z" stroke="#05DF72" stroke-width="1.99973" stroke-linecap="round" stroke-linejoin="round"/>
<path d="M2.99963 5.99921H20.9972" stroke="#05DF72" stroke-width="1.99973" stroke-linecap="round" stroke-linejoin="round"/>
<path d="M15.9978 9.99866C15.9978 11.0594 15.5765 12.0767 14.8264 12.8267C14.0764 13.5768 13.0591 13.9981 11.9984 13.9981C10.9376 13.9981 9.92036 13.5768 9.17032 12.8267C8.42027 12.0767 7.9989 11.0594 7.9989 9.99866" stroke="#05DF72" stroke-width="1.99973" stroke-linecap="round" stroke-linejoin="round"/>
</svg>
