<svg width="24" height="24" viewBox="0 0 24 24" fill="none" xmlns="http://www.w3.org/2000/svg">
<path d="M12.8283 2.17972C12.5677 2.06089 12.2847 1.99939 11.9984 1.99939C11.712 1.99939 11.429 2.06089 11.1685 2.17972L2.59964 6.0792C2.42221 6.15744 2.27136 6.28557 2.16546 6.44801C2.05956 6.61045 2.00317 6.80017 2.00317 6.99408C2.00317 7.18799 2.05956 7.37772 2.16546 7.54015C2.27136 7.70259 2.42221 7.83073 2.59964 7.90896L11.1785 11.8184C11.439 11.9373 11.722 11.9988 12.0084 11.9988C12.2947 11.9988 12.5777 11.9373 12.8383 11.8184L21.4171 7.91896C21.5946 7.84072 21.7454 7.71259 21.8513 7.55015C21.9572 7.38771 22.0136 7.19799 22.0136 7.00408C22.0136 6.81017 21.9572 6.62044 21.8513 6.45801C21.7454 6.29557 21.5946 6.16744 21.4171 6.0892L12.8283 2.17972Z" stroke="white" stroke-width="1.99973" stroke-linecap="round" stroke-linejoin="round"/>
<path d="M1.99976 11.9984C1.99929 12.1897 2.05367 12.377 2.15646 12.5383C2.25924 12.6996 2.40612 12.828 2.57968 12.9083L11.1785 16.8178C11.4377 16.9351 11.7189 16.9958 12.0034 16.9958C12.2879 16.9958 12.5691 16.9351 12.8283 16.8178L21.4072 12.9183C21.5842 12.8387 21.7342 12.7094 21.8389 12.5461C21.9437 12.3827 21.9986 12.1924 21.9971 11.9984" stroke="white" stroke-width="1.99973" stroke-linecap="round" stroke-linejoin="round"/>
<path d="M1.99976 16.9977C1.99929 17.189 2.05367 17.3763 2.15646 17.5376C2.25924 17.6989 2.40612 17.8273 2.57968 17.9076L11.1785 21.8171C11.4377 21.9345 11.7189 21.9952 12.0034 21.9952C12.2879 21.9952 12.5691 21.9345 12.8283 21.8171L21.4072 17.9176C21.5842 17.8381 21.7342 17.7087 21.8389 17.5454C21.9437 17.3821 21.9986 17.1918 21.9971 16.9977" stroke="white" stroke-width="1.99973" stroke-linecap="round" stroke-linejoin="round"/>
</svg>
