<svg width="24" height="24" viewBox="0 0 24 24" fill="none" xmlns="http://www.w3.org/2000/svg">
<path d="M11.9984 1.99973C11.2028 1.99973 10.4399 2.31575 9.87734 2.87829C9.31481 3.44082 8.99878 4.20378 8.99878 4.99933V11.9984C8.99878 12.7939 9.31481 13.5569 9.87734 14.1194C10.4399 14.682 11.2028 14.998 11.9984 14.998C12.7939 14.998 13.5569 14.682 14.1194 14.1194C14.682 13.5569 14.998 12.7939 14.998 11.9984V4.99933C14.998 4.20378 14.682 3.44082 14.1194 2.87829C13.5569 2.31575 12.7939 1.99973 11.9984 1.99973Z" stroke="white" stroke-width="1.99973" stroke-linecap="round" stroke-linejoin="round"/>
<path d="M18.9975 9.99866V11.9984C18.9975 13.8547 18.2601 15.6349 16.9475 16.9475C15.635 18.2601 13.8547 18.9975 11.9985 18.9975C10.1422 18.9975 8.36195 18.2601 7.04937 16.9475C5.73679 15.6349 4.99939 13.8547 4.99939 11.9984V9.99866" stroke="white" stroke-width="1.99973" stroke-linecap="round" stroke-linejoin="round"/>
<path d="M11.9984 18.9975V21.9975" stroke="white" stroke-width="1.99973" stroke-linecap="round" stroke-linejoin="round"/>
</svg>
