<svg width="24" height="24" viewBox="0 0 24 24" fill="none" xmlns="http://www.w3.org/2000/svg">
<path d="M12.5843 2.58565C12.2094 2.2106 11.7009 1.99984 11.1705 1.99973H3.99949C3.46913 1.99973 2.96049 2.21041 2.58546 2.58543C2.21044 2.96046 1.99976 3.4691 1.99976 3.99946V11.1705C1.99987 11.7008 2.21063 12.2094 2.58568 12.5843L11.2885 21.2872C11.743 21.7387 12.3576 21.9922 12.9983 21.9922C13.639 21.9922 14.2536 21.7387 14.7081 21.2872L21.2872 14.708C21.7388 14.2536 21.9922 13.6389 21.9922 12.9983C21.9922 12.3576 21.7388 11.7429 21.2872 11.2885L12.5843 2.58565Z" stroke="white" stroke-width="1.99973" stroke-linecap="round" stroke-linejoin="round"/>
<path d="M7.49902 7.99905C7.77517 7.99905 7.99902 7.7752 7.99902 7.49905C7.99902 7.22291 7.77517 6.99905 7.49902 6.99905C7.22288 6.99905 6.99902 7.22291 6.99902 7.49905C6.99902 7.7752 7.22288 7.99905 7.49902 7.99905Z" fill="white" stroke="white" stroke-width="1.99973" stroke-linecap="round" stroke-linejoin="round"/>
</svg>
