<svg width="20" height="20" viewBox="0 0 20 20" fill="none" xmlns="http://www.w3.org/2000/svg">
<path d="M7.49902 14.998V4.16611L17.4977 2.49966V13.3315" stroke="#51A2FF" stroke-width="1.66644" stroke-linecap="round" stroke-linejoin="round"/>
<path d="M4.9993 17.4976C6.37982 17.4976 7.49896 16.3785 7.49896 14.998C7.49896 13.6175 6.37982 12.4983 4.9993 12.4983C3.61877 12.4983 2.49963 13.6175 2.49963 14.998C2.49963 16.3785 3.61877 17.4976 4.9993 17.4976Z" stroke="#51A2FF" stroke-width="1.66644" stroke-linecap="round" stroke-linejoin="round"/>
<path d="M14.998 15.8312C16.3785 15.8312 17.4976 14.7121 17.4976 13.3315C17.4976 11.951 16.3785 10.8319 14.998 10.8319C13.6174 10.8319 12.4983 11.951 12.4983 13.3315C12.4983 14.7121 13.6174 15.8312 14.998 15.8312Z" stroke="#51A2FF" stroke-width="1.66644" stroke-linecap="round" stroke-linejoin="round"/>
</svg>
