<svg width="20" height="20" viewBox="0 0 20 20" fill="none" xmlns="http://www.w3.org/2000/svg">
<path d="M10.4883 2.15502C10.1758 1.84244 9.75195 1.66678 9.30996 1.66669H3.33329C2.89127 1.66669 2.46734 1.84228 2.15478 2.15484C1.84222 2.4674 1.66663 2.89133 1.66663 3.33335V9.31002C1.66672 9.75201 1.84238 10.1759 2.15496 10.4884L9.40829 17.7417C9.78705 18.1181 10.2993 18.3293 10.8333 18.3293C11.3673 18.3293 11.8795 18.1181 12.2583 17.7417L17.7416 12.2584C18.118 11.8796 18.3292 11.3673 18.3292 10.8334C18.3292 10.2994 18.118 9.78711 17.7416 9.40835L10.4883 2.15502Z" stroke="#737373" stroke-width="1.66667" stroke-linecap="round" stroke-linejoin="round"/>
<path d="M6.25004 6.66665C6.48016 6.66665 6.66671 6.4801 6.66671 6.24998C6.66671 6.01986 6.48016 5.83331 6.25004 5.83331C6.01992 5.83331 5.83337 6.01986 5.83337 6.24998C5.83337 6.4801 6.01992 6.66665 6.25004 6.66665Z" fill="#737373" stroke="#737373" stroke-width="1.66667" stroke-linecap="round" stroke-linejoin="round"/>
</svg>
