<svg width="24" height="24" viewBox="0 0 24 24" fill="none" xmlns="http://www.w3.org/2000/svg">
<path d="M14.998 20.9972V12.9983C14.998 12.7331 14.8926 12.4788 14.7051 12.2913C14.5176 12.1038 14.2633 11.9984 13.9981 11.9984H9.99865C9.73346 11.9984 9.47915 12.1038 9.29163 12.2913C9.10412 12.4788 8.99878 12.7331 8.99878 12.9983V20.9972" stroke="#51A2FF" stroke-width="1.99973" stroke-linecap="round" stroke-linejoin="round"/>
<path d="M2.99963 9.99866C2.99956 9.70776 3.06296 9.42036 3.1854 9.15649C3.30783 8.89261 3.48637 8.65863 3.70854 8.47086L10.7076 2.47266C11.0685 2.16761 11.5259 2.00024 11.9984 2.00024C12.471 2.00024 12.9283 2.16761 13.2893 2.47266L20.2883 8.47086C20.5105 8.65863 20.689 8.89261 20.8115 9.15649C20.9339 9.42036 20.9973 9.70776 20.9972 9.99866V18.9975C20.9972 19.5278 20.7865 20.0365 20.4115 20.4115C20.0365 20.7865 19.5279 20.9972 18.9975 20.9972H4.99937C4.469 20.9972 3.96036 20.7865 3.58534 20.4115C3.21032 20.0365 2.99963 19.5278 2.99963 18.9975V9.99866Z" stroke="#51A2FF" stroke-width="1.99973" stroke-linecap="round" stroke-linejoin="round"/>
</svg>
