<svg width="20" height="20" viewBox="0 0 20 20" fill="none" xmlns="http://www.w3.org/2000/svg">
<path d="M2.49963 9.16543L17.4976 4.99933V14.998L2.49963 11.6651V9.16543Z" stroke="#FF8904" stroke-width="1.66644" stroke-linecap="round" stroke-linejoin="round"/>
<path d="M9.66537 13.9981C9.57783 14.3154 9.42865 14.6124 9.22635 14.8721C9.02404 15.1318 8.77257 15.349 8.4863 15.5115C8.20002 15.674 7.88455 15.7785 7.55789 15.8191C7.23122 15.8596 6.89977 15.8354 6.58245 15.7479C6.26513 15.6604 5.96816 15.5112 5.7085 15.3089C5.44883 15.1066 5.23156 14.8551 5.06908 14.5688C4.9066 14.2825 4.80209 13.9671 4.76153 13.6404C4.72097 13.3137 4.74515 12.9823 4.83269 12.665" stroke="#FF8904" stroke-width="1.66644" stroke-linecap="round" stroke-linejoin="round"/>
</svg>
