<svg width="24" height="24" viewBox="0 0 24 24" fill="none" xmlns="http://www.w3.org/2000/svg">
<path d="M12.2184 1.99976H11.7785C11.2481 1.99976 10.7395 2.21044 10.3644 2.58546C9.98942 2.96049 9.77873 3.46913 9.77873 3.99949V4.17947C9.77837 4.53014 9.6858 4.87456 9.5103 5.17817C9.33481 5.48178 9.08256 5.7339 8.77886 5.90923L8.34892 6.1592C8.04492 6.33471 7.70008 6.42711 7.34905 6.42711C6.99803 6.42711 6.65318 6.33471 6.34919 6.1592L6.19921 6.07921C5.74033 5.81451 5.19518 5.7427 4.68341 5.87955C4.17164 6.01639 3.73509 6.35071 3.46957 6.80911L3.2496 7.18906C2.9849 7.64794 2.91309 8.19309 3.04993 8.70486C3.18678 9.21663 3.5211 9.65318 3.9795 9.9187L4.12948 10.0187C4.43172 10.1932 4.68303 10.4437 4.85844 10.7454C5.03384 11.0471 5.12724 11.3895 5.12935 11.7385V12.2484C5.13075 12.6008 5.03901 12.9472 4.86343 13.2528C4.68785 13.5583 4.43465 13.812 4.12948 13.9882L3.9795 14.0781C3.5211 14.3437 3.18678 14.7802 3.04993 15.292C2.91309 15.8038 2.9849 16.3489 3.2496 16.8078L3.46957 17.1877C3.73509 17.6461 4.17164 17.9805 4.68341 18.1173C5.19518 18.2541 5.74033 18.1823 6.19921 17.9176L6.34919 17.8376C6.65318 17.6621 6.99803 17.5697 7.34905 17.5697C7.70008 17.5697 8.04492 17.6621 8.34892 17.8376L8.77886 18.0876C9.08256 18.2629 9.33481 18.5151 9.5103 18.8187C9.6858 19.1223 9.77837 19.4667 9.77873 19.8174V19.9974C9.77873 20.5277 9.98942 21.0364 10.3644 21.4114C10.7395 21.7864 11.2481 21.9971 11.7785 21.9971H12.2184C12.7488 21.9971 13.2574 21.7864 13.6324 21.4114C14.0075 21.0364 14.2181 20.5277 14.2181 19.9974V19.8174C14.2185 19.4667 14.3111 19.1223 14.4866 18.8187C14.6621 18.5151 14.9143 18.2629 15.218 18.0876L15.6479 17.8376C15.9519 17.6621 16.2968 17.5697 16.6478 17.5697C16.9988 17.5697 17.3437 17.6621 17.6477 17.8376L17.7977 17.9176C18.2565 18.1823 18.8017 18.2541 19.3135 18.1173C19.8252 17.9805 20.2618 17.6461 20.5273 17.1877L20.7473 16.7978C21.012 16.3389 21.0838 15.7938 20.9469 15.282C20.8101 14.7702 20.4758 14.3337 20.0174 14.0681L19.8674 13.9882C19.5622 13.812 19.309 13.5583 19.1334 13.2528C18.9579 12.9472 18.8661 12.6008 18.8675 12.2484V11.7485C18.8661 11.3961 18.9579 11.0496 19.1334 10.7441C19.309 10.4386 19.5622 10.1849 19.8674 10.0087L20.0174 9.9187C20.4758 9.65318 20.8101 9.21663 20.9469 8.70486C21.0838 8.19309 21.012 7.64794 20.7473 7.18906L20.5273 6.80911C20.2618 6.35071 19.8252 6.01639 19.3135 5.87955C18.8017 5.7427 18.2565 5.81451 17.7977 6.07921L17.6477 6.1592C17.3437 6.33471 16.9988 6.42711 16.6478 6.42711C16.2968 6.42711 15.9519 6.33471 15.6479 6.1592L15.218 5.90923C14.9143 5.7339 14.6621 5.48178 14.4866 5.17817C14.3111 4.87456 14.2185 4.53014 14.2181 4.17947V3.99949C14.2181 3.46913 14.0075 2.96049 13.6324 2.58546C13.2574 2.21044 12.7488 1.99976 12.2184 1.99976Z" stroke="#A1A1A1" stroke-width="1.99973" stroke-linecap="round" stroke-linejoin="round"/>
<path d="M11.9988 14.9988C13.6556 14.9988 14.9988 13.6556 14.9988 11.9988C14.9988 10.3419 13.6556 8.99878 11.9988 8.99878C10.3419 8.99878 8.99878 10.3419 8.99878 11.9988C8.99878 13.6556 10.3419 14.9988 11.9988 14.9988Z" stroke="#A1A1A1" stroke-width="1.99973" stroke-linecap="round" stroke-linejoin="round"/>
</svg>
